<svg width="24" height="24" viewBox="0 0 24 24" fill="none" xmlns="http://www.w3.org/2000/svg">
<path d="M16.8001 12.5999H7.2001C6.8721 12.5999 6.6001 12.3279 6.6001 11.9999C6.6001 11.6719 6.8721 11.3999 7.2001 11.3999H16.8001C17.1281 11.3999 17.4001 11.6719 17.4001 11.9999C17.4001 12.3279 17.1281 12.5999 16.8001 12.5999Z" fill="#95C343"/>
<path d="M11.9999 17.4001C11.6719 17.4001 11.3999 17.1281 11.3999 16.8001V7.2001C11.3999 6.8721 11.6719 6.6001 11.9999 6.6001C12.3279 6.6001 12.5999 6.8721 12.5999 7.2001V16.8001C12.5999 17.1281 12.3279 17.4001 11.9999 17.4001Z" fill="#95C343"/>
<circle cx="12" cy="12" r="11.5" stroke="#95C343"/>
</svg>
