<svg width="16" height="16" viewBox="0 0 16 16" fill="none" xmlns="http://www.w3.org/2000/svg">
<path fill-rule="evenodd" clip-rule="evenodd" d="M15.9995 11.9791V14.3877C16.0013 14.8399 15.8121 15.2718 15.4783 15.5775C15.1444 15.8831 14.6969 16.0342 14.2457 15.9935C11.7702 15.725 9.39234 14.8808 7.30312 13.5286C5.35937 12.2959 3.71141 10.6512 2.47627 8.71134C1.11669 6.61679 0.270599 4.23206 0.00653539 1.75036C-0.0341121 1.30145 0.116163 0.856153 0.420652 0.523253C0.72514 0.190354 1.1558 0.000503414 1.60744 7.89385e-05H4.02087C4.82845 -0.00785366 5.51679 0.582945 5.62982 1.38103C5.73168 2.15185 5.92059 2.9087 6.19295 3.63713C6.41397 4.22394 6.2726 4.88546 5.83093 5.33121L4.80925 6.35087C5.95447 8.36092 7.62206 10.0252 9.6361 11.1682L10.6578 10.1485C11.1044 9.70771 11.7673 9.56662 12.3552 9.7872C13.0851 10.059 13.8435 10.2476 14.6158 10.3492C15.4248 10.4631 16.0198 11.164 15.9995 11.9791Z" fill="#95C343"/>
</svg>
