<svg width="14" height="12" viewBox="0 0 14 12" fill="none" xmlns="http://www.w3.org/2000/svg">
<path d="M1 3.99984C1 3.26346 1.59695 2.6665 2.33333 2.6665H2.95309C3.39889 2.6665 3.8152 2.4437 4.06249 2.07277L4.60418 1.26024C4.85147 0.889305 5.26777 0.666504 5.71358 0.666504H8.28642C8.73223 0.666504 9.14853 0.889305 9.39582 1.26024L9.93751 2.07277C10.1848 2.4437 10.6011 2.6665 11.0469 2.6665H11.6667C12.403 2.6665 13 3.26346 13 3.99984V9.99984C13 10.7362 12.403 11.3332 11.6667 11.3332H2.33333C1.59695 11.3332 1 10.7362 1 9.99984V3.99984Z" stroke="#95C343" stroke-linecap="round" stroke-linejoin="round"/>
<path d="M9 6.6665C9 7.77107 8.10457 8.6665 7 8.6665C5.89543 8.6665 5 7.77107 5 6.6665C5 5.56193 5.89543 4.6665 7 4.6665C8.10457 4.6665 9 5.56193 9 6.6665Z" stroke="#95C343" stroke-linecap="round" stroke-linejoin="round"/>
</svg>
