<svg width="51" height="51" viewBox="0 0 51 51" fill="none" xmlns="http://www.w3.org/2000/svg">
<path d="M45.8125 41.125H5.1875C4.7731 41.125 4.37567 40.9604 4.08265 40.6674C3.78962 40.3743 3.625 39.9769 3.625 39.5625V13C3.625 12.5856 3.78962 12.1882 4.08265 11.8951C4.37567 11.6021 4.7731 11.4375 5.1875 11.4375H15.2812L17.9531 7.45312C18.0947 7.23819 18.2871 7.06154 18.5134 6.93887C18.7396 6.81621 18.9926 6.75133 19.25 6.75H31.75C32.0074 6.75133 32.2604 6.81621 32.4866 6.93887C32.7129 7.06154 32.9053 7.23819 33.0469 7.45312L35.7188 11.4375H45.8125C46.2269 11.4375 46.6243 11.6021 46.9174 11.8951C47.2104 12.1882 47.375 12.5856 47.375 13V39.5625C47.375 39.9769 47.2104 40.3743 46.9174 40.6674C46.6243 40.9604 46.2269 41.125 45.8125 41.125ZM6.75 38H44.25V14.5625H34.875C34.6176 14.5612 34.3646 14.4963 34.1384 14.3736C33.9121 14.251 33.7197 14.0743 33.5781 13.8594L30.9062 9.875H20.0938L17.4219 13.8594C17.2803 14.0743 17.0879 14.251 16.8616 14.3736C16.6354 14.4963 16.3824 14.5612 16.125 14.5625H6.75V38Z" fill="#95C343"/>
<path d="M25.5 34.875C23.6458 34.875 21.8332 34.3252 20.2915 33.295C18.7498 32.2649 17.5482 30.8007 16.8386 29.0877C16.1291 27.3746 15.9434 25.4896 16.3051 23.671C16.6669 21.8525 17.5598 20.182 18.8709 18.8709C20.182 17.5598 21.8525 16.6669 23.671 16.3051C25.4896 15.9434 27.3746 16.1291 29.0877 16.8386C30.8007 17.5482 32.2649 18.7498 33.295 20.2915C34.3252 21.8332 34.875 23.6458 34.875 25.5C34.875 27.9864 33.8873 30.371 32.1291 32.1291C30.371 33.8873 27.9864 34.875 25.5 34.875ZM25.5 19.25C24.2639 19.25 23.0555 19.6166 22.0277 20.3033C20.9999 20.9901 20.1988 21.9662 19.7258 23.1082C19.2527 24.2503 19.1289 25.5069 19.3701 26.7193C19.6113 27.9317 20.2065 29.0453 21.0806 29.9194C21.9547 30.7935 23.0683 31.3888 24.2807 31.6299C25.4931 31.8711 26.7497 31.7473 27.8918 31.2742C29.0338 30.8012 30.0099 30.0001 30.6967 28.9723C31.3834 27.9445 31.75 26.7361 31.75 25.5C31.75 23.8424 31.0915 22.2527 29.9194 21.0806C28.7473 19.9085 27.1576 19.25 25.5 19.25Z" fill="#95C343"/>
</svg>
