<svg width="10" height="10" viewBox="0 0 10 10" fill="none" xmlns="http://www.w3.org/2000/svg">
<path fill-rule="evenodd" clip-rule="evenodd" d="M0.750244 4.15888C0.750244 1.85895 2.67218 0 4.99697 0C7.3283 0 9.25024 1.85895 9.25024 4.15888C9.25024 5.31784 8.82875 6.39381 8.13499 7.30579C7.36965 8.31176 6.42632 9.18823 5.36451 9.87621C5.1215 10.0352 4.90218 10.0472 4.63547 9.87621C3.56761 9.18823 2.62429 8.31176 1.86549 7.30579C1.17124 6.39381 0.750244 5.31784 0.750244 4.15888ZM3.59706 4.28842C3.59706 5.0589 4.22578 5.66488 4.99667 5.66488C5.76807 5.66488 6.40283 5.0589 6.40283 4.28842C6.40283 3.52394 5.76807 2.88846 4.99667 2.88846C4.22578 2.88846 3.59706 3.52394 3.59706 4.28842Z" fill="#95C343"/>
</svg>
