<svg width="14" height="15" viewBox="0 0 14 15" fill="none" xmlns="http://www.w3.org/2000/svg">
<path d="M10.2998 10.2165C9.87949 10.6368 9.10629 11.41 8.41396 12.1023C7.63291 12.8834 6.36694 12.8833 5.58589 12.1022C4.90697 11.4233 4.14595 10.6623 3.70015 10.2165C1.8777 8.39405 1.8777 5.43928 3.70015 3.61684C5.5226 1.79439 8.47736 1.79439 10.2998 3.61684C12.1223 5.43928 12.1223 8.39405 10.2998 10.2165Z" stroke="#9DA0A3" stroke-linecap="round" stroke-linejoin="round"/>
<path d="M8.74998 6.91667C8.74998 7.88316 7.96648 8.66667 6.99998 8.66667C6.03348 8.66667 5.24998 7.88316 5.24998 6.91667C5.24998 5.95017 6.03348 5.16667 6.99998 5.16667C7.96648 5.16667 8.74998 5.95017 8.74998 6.91667Z" stroke="#9DA0A3" stroke-linecap="round" stroke-linejoin="round"/>
</svg>
