<svg width="164" height="56" viewBox="0 0 164 56" fill="none" xmlns="http://www.w3.org/2000/svg">
    <g clip-path="url(#clip0_713_2360)">
        <path d="M154.28 13.2404L152.046 33.8806C151.725 36.8425 151.309 38.6058 150.195 39.5724C150.235 39.5724 150.263 39.5793 150.302 39.5828C150.373 39.5828 150.444 39.5932 150.519 39.5966C151.177 39.6209 152.875 39.4199 155.781 37.9095C157.599 36.9638 159.126 35.6577 160.346 34.0919C161.043 33.1946 161.627 32.2627 162.079 31.317L164 13.5799L154.28 13.2473V13.2404Z" fill="#95C343"/>
        <path d="M141.198 12.7901L131.474 12.4575L129.599 29.7616C129.62 29.8205 129.634 29.8759 129.649 29.9348C130.2 32.2108 131.132 34.1092 132.652 35.6058C135.348 38.2629 139.127 39.0008 139.397 38.9488C138.693 37.8888 138.664 36.167 138.96 33.4268L141.194 12.7866L141.198 12.7901Z" fill="#9DA0A3"/>
        <path d="M129.396 30.4579C129.425 30.5583 129.46 30.6588 129.485 30.7627C130.015 32.9556 130.99 34.9095 132.545 36.5377C134.527 39.0077 139.152 40.1094 139.988 39.9431C140.76 39.7906 141.525 39.6001 142.29 39.4061C142.571 39.3334 142.827 39.3334 143.073 39.4546C143.322 39.5759 143.567 39.704 143.813 39.8322C143.862 39.8599 143.905 39.905 143.991 39.9742C143.596 40.1717 143.24 40.3484 142.884 40.5251C142.614 40.6602 142.329 40.7745 142.084 40.9408C141.863 41.0897 141.628 41.2699 141.493 41.4881C140.998 42.2676 140.539 43.0678 140.077 43.8612C139.81 44.3219 139.967 44.7723 140.447 44.9663C141.151 45.2538 141.877 45.33 142.631 44.9663C143.169 44.7065 143.599 44.315 143.891 43.8196C144.158 43.3623 144.588 43.3935 144.983 43.3069C145.069 43.2896 145.19 43.3831 145.268 43.4524C145.855 43.9547 146.463 44.4362 147.011 44.9767C148.175 46.1268 149.203 47.3878 150.174 48.6973C150.309 48.8774 150.267 49.0056 150.106 49.1476C149.583 49.6084 149.334 49.8474 148.63 49.2862C148.288 49.0125 147.918 48.7735 147.588 48.4894C147.403 48.3301 147.271 48.1153 147.118 47.9213C147.033 47.8139 146.958 47.6892 146.851 47.6026C146.798 47.5575 146.68 47.5818 146.591 47.5783C146.609 47.6545 146.598 47.7515 146.645 47.8C147.171 48.3578 147.705 48.9121 148.242 49.4629C148.349 49.5738 148.473 49.6708 148.587 49.7781C148.819 49.9929 148.886 50.3601 148.74 50.5992C148.523 50.9525 148.135 51.1535 147.794 51.0218C147.153 50.7759 146.527 50.5022 146.15 49.9029C146.09 49.8093 145.994 49.7331 145.898 49.6708C145.858 49.6465 145.759 49.6569 145.723 49.6915C145.691 49.7227 145.691 49.8232 145.72 49.8578C145.858 50.0241 146.001 50.1904 146.161 50.3359C146.421 50.5715 146.695 50.7897 146.965 51.0184C147.239 51.2505 147.228 51.5553 146.951 51.8221C146.542 52.2135 146.236 52.2794 145.812 52.0126C145.481 51.8047 145.115 51.6385 144.791 51.4202C144.595 51.2886 144.446 51.0911 144.279 50.9214C144.236 50.8763 144.204 50.814 144.151 50.7897C144.097 50.7655 144.023 50.7759 143.955 50.7689C143.966 50.8313 143.948 50.9144 143.987 50.9525C144.236 51.1985 144.492 51.4341 144.752 51.6696C144.844 51.7528 144.948 51.8255 145.047 51.9018C145.2 52.0126 145.367 52.12 145.293 52.3556C145.211 52.605 145.033 52.7851 144.78 52.851C144.62 52.8925 144.425 52.8995 144.275 52.851C143.823 52.6951 143.386 52.5045 142.945 52.3244C142.77 52.2516 142.724 52.1616 142.916 52.023C143.051 51.926 143.172 51.8117 143.3 51.7008C143.713 51.3405 143.887 50.71 143.67 50.2528C143.468 49.8232 143.169 49.4733 142.667 49.3313C142.589 49.3105 142.5 49.1892 142.496 49.1061C142.464 48.3578 141.852 47.7377 141.073 47.7238C140.845 47.7204 140.756 47.6407 140.685 47.4467C140.468 46.8404 139.767 46.4282 139.12 46.5633C138.864 46.6153 138.625 46.8127 138.383 46.9548C138.316 46.9963 138.266 47.0725 138.209 47.1314C138.081 47.27 137.988 47.2804 137.86 47.1314C137.718 46.9617 137.544 46.8093 137.359 46.688C136.772 46.3069 136.202 46.3901 135.672 46.9097C135.637 46.9444 135.605 46.9825 135.569 47.0206C135.316 47.2873 135.32 47.2839 135.018 47.121C133.783 46.4559 132.712 45.6002 131.819 44.5471C130.898 43.4593 130.222 42.226 129.755 40.8784C129.172 39.1948 128.93 37.4315 128.923 35.63C128.916 33.9533 129.09 32.2697 129.297 30.5895C129.3 30.5514 129.318 30.5168 129.329 30.4787L129.393 30.4683L129.396 30.4579Z" fill="#95C343"/>
        <path d="M145.887 42.2503C145.496 42.4339 145.115 42.6487 144.709 42.7976C144.122 43.0159 144.083 42.9431 144.236 42.4096C144.25 42.3646 144.247 42.3161 144.218 42.2572C144.09 42.4893 143.98 42.7318 143.83 42.9501C143.564 43.3346 143.3 43.7295 142.984 44.076C142.311 44.8069 141.397 44.7861 140.653 44.4397C140.465 44.3531 140.493 44.1972 140.586 44.0344C140.913 43.4836 141.23 42.9258 141.564 42.3785C142.226 41.2976 141.881 41.6025 143.033 41.0274C143.731 40.681 144.432 40.3449 145.126 39.9916C145.442 39.8288 145.748 39.8495 146.058 39.9327C150.879 40.9858 154.568 39.4408 155.635 38.8657C157.471 37.8818 159.037 36.5862 160.303 34.9545C161.075 33.9637 161.73 32.9071 162.235 31.7743C162.267 31.705 162.314 31.6392 162.406 31.5803C162.406 31.6531 162.406 31.7258 162.399 31.7986C162.264 32.9141 162.164 34.033 161.983 35.1485C161.652 37.1855 161.107 39.1809 160.136 41.0759C159.176 42.9535 157.884 44.5852 156.183 45.9086C154.629 47.1176 152.875 47.9282 150.996 48.4617C150.818 48.5137 150.718 48.4687 150.608 48.3336C149.879 47.4294 149.146 46.5287 148.392 45.6418C147.552 44.651 146.606 43.7607 145.56 42.9709C145.371 42.8288 145.389 42.7318 145.574 42.5898C145.698 42.4963 145.798 42.375 145.912 42.2641C145.901 42.2572 145.894 42.2503 145.883 42.2434L145.887 42.2503Z" fill="#9DA0A3"/>
        <path d="M139.355 51.6108C139.006 51.7286 138.572 51.8394 138.259 51.5242C137.996 51.2609 137.572 51.0877 137.647 50.5923C137.572 50.5923 137.515 50.575 137.465 50.5888C137.063 50.6893 136.743 50.5784 136.48 50.3013C136.384 50.2008 136.263 50.1211 136.174 50.0137C136.106 49.9341 136.024 49.8267 136.035 49.7331C136.06 49.4941 135.932 49.4179 135.747 49.3278C135.544 49.2308 135.363 49.0853 135.185 48.9433C134.993 48.7909 134.954 48.4375 135.142 48.2296C135.491 47.8416 135.857 47.4606 136.245 47.1141C136.359 47.0137 136.604 46.9583 136.747 46.9998C137.369 47.1661 137.764 47.665 137.355 48.3717C137.33 48.4132 137.305 48.4514 137.284 48.4929L137.334 48.5414C137.786 48.1534 138.252 47.7827 138.686 47.3774C139.127 46.9617 139.497 46.9375 139.984 47.3636C140.308 47.6442 140.312 48.1292 139.974 48.4895C139.607 48.8844 139.227 49.2689 138.874 49.695C139.173 49.4872 139.483 49.2932 139.774 49.0749C140.02 48.8879 140.248 48.6765 140.486 48.4791C140.92 48.1153 141.336 48.1673 141.778 48.635C142.048 48.9225 141.998 49.411 141.66 49.7262C141.29 50.0726 140.92 50.4191 140.575 50.8071C140.927 50.5853 141.279 50.3671 141.628 50.1419C141.866 49.986 142.08 49.7955 142.393 49.8336C142.816 49.8856 143.044 50.1662 143.169 50.5022C143.286 50.8209 143.179 51.1431 142.863 51.3787C142.382 51.7389 141.923 52.1339 141.411 52.4422C140.778 52.8267 140.237 52.7193 139.792 52.2032C139.646 52.0299 139.522 51.8394 139.355 51.6073V51.6108Z" fill="#9DA0A3"/>
        <path d="M26.1076 9.39856H34.5504L31.6721 23.8238C32.9209 21.2013 35.6356 19.7879 39.6773 19.7879C46.4124 19.7879 47.6185 22.3099 46.238 29.2177L42.8758 46.0644H34.433L37.4323 31.033C38.2079 27.1495 37.7063 26.5433 34.5469 26.5433C31.3875 26.5433 30.8253 28.0571 30.1316 31.5353L27.2319 46.061H18.7891L26.1076 9.39856Z" fill="#9DA0A3"/>
        <path d="M62.5901 46.4178H59.0145C51.1409 46.4178 49.0204 43.5424 50.5716 35.7755L51.639 30.4302C53.1902 22.6632 56.4563 19.7879 64.3299 19.7879H67.9056C75.7791 19.7879 77.8996 22.6632 76.3484 30.4302L75.5336 34.5145H59.3204L58.6871 37.6913C58.2033 40.1128 58.986 40.868 61.4196 40.868H62.5083C64.7355 40.868 65.7353 40.2618 66.3686 38.1451H74.7082C73.1072 44.0967 69.4817 46.4178 62.5937 46.4178H62.5901ZM68.1119 30.1773L68.2934 29.2696C68.9587 25.9405 68.5282 24.9843 65.7317 24.9843H64.643C61.8963 24.9843 61.0318 25.9439 60.4198 29.0202L60.1885 30.1807H68.1155L68.1119 30.1773Z" fill="#9DA0A3"/>
        <path d="M86.7087 9.39856H95.308L87.9895 46.0644H79.3901L86.7087 9.39856Z" fill="#9DA0A3"/>
        <path d="M100.207 20.1413H108.391L107.551 23.8238C109.618 21.0004 112.137 19.7879 115.713 19.7879C121.875 19.7879 123.835 23.2175 122.394 30.4302L121.327 35.7755C119.886 42.9882 116.51 46.4178 110.344 46.4178C106.925 46.4178 104.783 45.2088 104.107 42.8877L101.488 56H93.0454L100.204 20.1413H100.207ZM108.796 39.9119C111.593 39.9119 112.205 38.398 112.87 35.0688L113.667 31.0849C114.332 27.7557 114.321 26.2418 111.525 26.2418H110.539C107.743 26.2418 107.131 27.7557 106.466 31.0849L105.669 35.0688C105.003 38.398 105.014 39.9119 107.811 39.9119H108.796Z" fill="#9DA0A3"/>
        <path d="M0.971298 8.89276L5.38306 9.95976L23.1724 9.26344L22.5142 12.4402L10.1257 18.8768L5.90251 46.5702H0L0.971298 8.89276Z" fill="#95C343"/>
        <path d="M8.40018 6.98053H5.78159C5.39734 6.98053 5.07713 6.7311 5.04155 6.40199L4.61816 1.54508C4.61816 0.69287 5.42224 0.003479 6.41489 0.003479H8.50692C9.17935 0.003479 9.76996 0.322192 10.0759 0.793334C10.2752 1.09819 10.325 1.46194 10.2432 1.80837L9.1331 6.4401C9.07973 6.75189 8.76664 6.98399 8.40018 6.98399V6.98053Z" fill="#9DA0A3"/>
    </g>
    <defs>
        <clipPath id="clip0_713_2360">
            <rect width="164" height="56" fill="white"/>
        </clipPath>
    </defs>
</svg>
