<svg width="24" height="22" viewBox="0 0 24 22" fill="none" xmlns="http://www.w3.org/2000/svg">
<path d="M2.11875 0.523438C1.37344 0.687501 0.665629 1.22188 0.318754 1.8875C-0.0187456 2.53438 4.39452e-06 2.06094 4.39452e-06 9.19531C4.39452e-06 15.4063 0.0046919 15.6219 0.0890669 15.7531C0.234379 15.9734 0.412504 16.0625 0.712504 16.0625H0.975004L2.11875 15.2516C2.74219 14.8063 3.68907 14.1359 4.21875 13.7563C4.74844 13.3813 5.29688 13.0203 5.4375 12.9594L5.69532 12.8516L10.4531 12.8281L15.2109 12.8047L15.525 12.6828C16.3922 12.3453 17.0344 11.6141 17.2547 10.7188C17.3063 10.5078 17.3203 9.56094 17.3203 5.72656C17.3203 1.07656 17.3203 0.987501 17.2266 0.832813C17.175 0.743751 17.0719 0.631251 17.0016 0.575001L16.8703 0.476563L9.64219 0.467189C3.65157 0.462501 2.3625 0.471876 2.11875 0.523438ZM15.8813 6.13438C15.8672 10.3156 15.8672 10.3719 15.7688 10.5781C15.6328 10.8688 15.4547 11.0703 15.1922 11.225L14.9766 11.3516L10.2656 11.375C6.07969 11.3984 5.52657 11.4125 5.29688 11.4781C4.90782 11.5953 4.57032 11.7359 4.35469 11.8719C4.17188 11.9844 1.87969 13.6063 1.55625 13.85L1.40157 13.9672L1.41563 8.46406C1.42969 2.50156 1.41563 2.83438 1.6875 2.45938C1.86094 2.22031 2.03438 2.08906 2.31563 1.99063C2.54063 1.91563 2.99063 1.91094 9.225 1.90625H15.8953L15.8813 6.13438Z" fill="white"/>
<path d="M4.70625 4.38594C4.2375 4.67188 4.20469 5.3 4.64531 5.61406L4.80469 5.72656H9.12656C13.4063 5.72656 13.4484 5.72656 13.5797 5.62812C13.65 5.57656 13.7625 5.43594 13.8188 5.31406C13.9547 5.04688 13.9266 4.78906 13.7484 4.57344C13.5 4.28281 13.7672 4.29688 9.10781 4.29688C5.02031 4.29688 4.84688 4.30156 4.70625 4.38594Z" fill="white"/>
<path d="M4.70625 7.66719C4.2375 7.95312 4.20469 8.58125 4.64531 8.89531L4.80469 9.00781H9.12656C13.4063 9.00781 13.4484 9.00781 13.5797 8.90937C13.65 8.85781 13.7625 8.71719 13.8188 8.59531C13.9547 8.32812 13.9266 8.07031 13.7484 7.85469C13.5 7.56406 13.7672 7.57812 9.10781 7.57812C5.02031 7.57812 4.84688 7.58281 4.70625 7.66719Z" fill="white"/>
<path d="M19.261 5.93276C18.8953 6.00776 18.7031 6.2562 18.7031 6.65463C18.7031 6.90307 18.7172 6.94057 18.886 7.12338L19.0735 7.32026L20.3063 7.3437C21.4547 7.36713 21.5531 7.37651 21.7781 7.47963C22.0735 7.61088 22.3219 7.85463 22.4625 8.16401L22.5703 8.39838L22.5844 13.8968C22.5938 18.3499 22.5844 19.3906 22.5375 19.3624C22.5047 19.3437 21.8344 18.8703 21.0469 18.3078C19.5281 17.2296 19.4297 17.1687 18.9141 16.9953L18.586 16.8828L13.8516 16.8593C8.55471 16.8312 8.9719 16.864 8.56409 16.489C8.24534 16.1937 8.1469 15.9171 8.12346 15.2656C8.1094 14.8953 8.08127 14.6796 8.02971 14.5718C7.79534 14.1031 7.05002 14.0984 6.77346 14.5624C6.69377 14.7078 6.67971 14.8015 6.6844 15.3359C6.68909 16.0484 6.76409 16.3906 7.01721 16.8734C7.33596 17.4734 7.93596 17.9562 8.6719 18.1999C8.91096 18.2796 9.24846 18.289 13.6641 18.3124C18.2016 18.3359 18.4078 18.3406 18.6047 18.4249C18.7172 18.4765 19.7438 19.1796 20.8781 19.9906C22.0172 20.8015 22.9922 21.4812 23.0531 21.5046C23.3438 21.6171 23.7094 21.4906 23.8969 21.2187L24 21.064V14.6468C24 7.55932 24.0141 7.93432 23.7047 7.37182C23.4141 6.85151 23.0485 6.49057 22.5469 6.22338C22.0641 5.97026 21.8344 5.93276 20.5781 5.91401C19.9453 5.90463 19.3547 5.90932 19.261 5.93276Z" fill="white"/>
</svg>
