<svg width="20" height="20" viewBox="0 0 20 20" fill="none" xmlns="http://www.w3.org/2000/svg">
<path fill-rule="evenodd" clip-rule="evenodd" d="M20 9.44447C20.0038 10.911 19.6612 12.3577 19 13.6667C17.4011 16.8659 14.1321 18.8875 10.5556 18.8889C9.08903 18.8927 7.64235 18.5501 6.33333 17.8889L0 20L2.11111 13.6667C1.44992 12.3577 1.10729 10.911 1.11111 9.44447C1.11249 5.86791 3.13408 2.59897 6.33333 1.00003C7.64235 0.338844 9.08903 -0.00379196 10.5556 3.16534e-05H11.1111C15.9065 0.264587 19.7354 4.09358 20 8.88892V9.44447Z" fill="#95C343"/>
<circle cx="6" cy="12" r="1" fill="#F4F9EC"/>
<circle cx="10" cy="12" r="1" fill="#F4F9EC"/>
<circle cx="14" cy="12" r="1" fill="#F4F9EC"/>
</svg>
