<svg width="94" height="121" viewBox="0 0 94 121" fill="none" xmlns="http://www.w3.org/2000/svg">
<path d="M84.4481 0.955383H23.1301C18.2449 0.955383 14.2847 5.04112 14.2847 10.0811V110.602C14.2847 115.642 18.2449 119.728 23.1301 119.728H84.4481C89.3333 119.728 93.2935 115.642 93.2935 110.602V10.0811C93.2935 5.04112 89.3333 0.955383 84.4481 0.955383Z" fill="#95C343"/>
<path d="M84.4546 120.408H23.1299C20.6089 120.407 18.1915 119.373 16.4082 117.535C14.6249 115.696 13.6215 113.203 13.6179 110.602V10.0742C13.6215 7.47323 14.6249 4.97997 16.4082 3.14147C18.1915 1.30297 20.6089 0.269419 23.1299 0.2676H84.4546C85.7055 0.264888 86.9446 0.51639 88.1013 1.00775C89.258 1.49911 90.3095 2.2207 91.1959 3.13133C92.0823 4.04195 92.7861 5.12377 93.2672 6.31503C93.7483 7.50628 93.9973 8.78364 93.9999 10.0742V110.602C93.9973 111.892 93.7483 113.17 93.2672 114.361C92.7861 115.552 92.0823 116.634 91.1959 117.545C90.3095 118.455 89.258 119.177 88.1013 119.668C86.9446 120.16 85.7055 120.411 84.4546 120.408ZM23.1299 1.643C20.9624 1.64481 18.8842 2.53346 17.3509 4.11402C15.8176 5.69458 14.9546 7.83801 14.9511 10.0742V110.602C14.9546 112.838 15.8176 114.981 17.3509 116.562C18.8842 118.143 20.9624 119.031 23.1299 119.033H84.4546C85.5306 119.037 86.5968 118.821 87.5922 118.399C88.5875 117.977 89.4924 117.357 90.2551 116.574C91.0179 115.791 91.6235 114.861 92.0373 113.836C92.4511 112.811 92.665 111.712 92.6668 110.602V10.0742C92.6632 7.83801 91.8002 5.69458 90.2669 4.11402C88.7337 2.53346 86.6554 1.64481 84.4879 1.643H23.1299Z" fill="#333333"/>
<path d="M93.2935 11.0368H14.2847V106.31H93.2935V11.0368Z" fill="#CEE3A9"/>
<path d="M93.3333 107.005H14.2845C14.1077 107.005 13.9382 106.933 13.8132 106.804C13.6881 106.675 13.6179 106.5 13.6179 106.317V11.0369C13.6179 10.8546 13.6881 10.6796 13.8132 10.5507C13.9382 10.4217 14.1077 10.3492 14.2845 10.3492H93.3333C93.5101 10.3492 93.6797 10.4217 93.8047 10.5507C93.9297 10.6796 93.9999 10.8546 93.9999 11.0369V106.317C93.9999 106.5 93.9297 106.675 93.8047 106.804C93.6797 106.933 93.5101 107.005 93.3333 107.005ZM14.9844 105.63H92.6668V11.7246H14.9511L14.9844 105.63Z" fill="#333333"/>
<path d="M80.8634 23.7729H4.12752C2.39727 23.7729 0.994629 25.22 0.994629 27.0051V85.4731C0.994629 87.2582 2.39727 88.7053 4.12752 88.7053H80.8634C82.5936 88.7053 83.9963 87.2582 83.9963 85.4731V27.0051C83.9963 25.22 82.5936 23.7729 80.8634 23.7729Z" fill="#F4F9EC"/>
<path d="M80.542 89.3931H3.79946C2.79232 89.3912 1.82694 88.9777 1.11478 88.243C0.402626 87.5082 0.00176228 86.5122 0 85.4732V27.0189C0.00176228 25.9798 0.402626 24.9838 1.11478 24.2491C1.82694 23.5144 2.79232 23.1008 3.79946 23.099H80.542C81.5491 23.1008 82.5145 23.5144 83.2266 24.2491C83.9388 24.9838 84.3397 25.9798 84.3414 27.0189V85.4732C84.3397 86.5122 83.9388 87.5082 83.2266 88.243C82.5145 88.9777 81.5491 89.3912 80.542 89.3931ZM3.79946 24.4606C3.14535 24.4606 2.51804 24.7287 2.05551 25.2059C1.59299 25.6831 1.33315 26.3303 1.33315 27.0051V85.4594C1.33315 86.1343 1.59299 86.7815 2.05551 87.2587C2.51804 87.7358 3.14535 88.0039 3.79946 88.0039H80.542C81.1961 88.0039 81.8234 87.7358 82.2859 87.2587C82.7484 86.7815 83.0083 86.1343 83.0083 85.4594V27.0051C83.0083 26.3303 82.7484 25.6831 82.2859 25.2059C81.8234 24.7287 81.1961 24.4606 80.542 24.4606H3.79946Z" fill="#333333"/>
<path d="M67.4969 82.9703H16.8374C15.1437 82.9666 13.5205 82.2704 12.3235 81.0342C11.1266 79.798 10.4534 78.1226 10.4517 76.3752V71.19C10.4534 69.4426 11.1266 67.7673 12.3235 66.531C13.5205 65.2948 15.1437 64.5986 16.8374 64.595H67.4969C69.1906 64.5986 70.8138 65.2948 72.0108 66.531C73.2078 67.7673 73.881 69.4426 73.8827 71.19V76.3752C73.881 78.1226 73.2078 79.798 72.0108 81.0342C70.8138 82.2704 69.1906 82.9666 67.4969 82.9703ZM16.8374 65.9704C15.4968 65.9722 14.2116 66.5229 13.2643 67.5016C12.3169 68.4803 11.7848 69.8068 11.7848 71.19V76.3752C11.7866 77.7578 12.3192 79.0834 13.2662 80.0616C14.2132 81.0399 15.4973 81.5912 16.8374 81.5949H67.4969C68.8371 81.5912 70.1212 81.0399 71.0681 80.0616C72.0151 79.0834 72.5478 77.7578 72.5496 76.3752V71.19C72.5496 69.8068 72.0175 68.4803 71.0701 67.5016C70.1227 66.5229 68.8376 65.9722 67.4969 65.9704H16.8374Z" fill="#F4F9EC"/>
<rect x="8.95166" y="43.3181" width="66.6408" height="5.00587" rx="1" fill="#AACF69"/>
<rect x="21.8821" y="75.3556" width="39.7856" height="8.00939" rx="1" fill="#AACF69"/>
<rect x="9.94629" y="55.3322" width="11.9357" height="12.0141" fill="#AACF69"/>
<rect x="26.8552" y="55.3322" width="11.9357" height="12.0141" fill="#AACF69"/>
<rect x="43.7642" y="55.3322" width="11.9357" height="12.0141" fill="#AACF69"/>
<rect x="60.6731" y="55.3322" width="11.9357" height="12.0141" fill="#AACF69"/>
<path d="M53.7924 116.234C53.124 116.234 52.4706 116.03 51.9148 115.647C51.3591 115.263 50.9259 114.719 50.6701 114.082C50.4143 113.445 50.3474 112.744 50.4778 112.067C50.6082 111.391 50.9301 110.77 51.4027 110.282C51.8753 109.794 52.4775 109.462 53.1331 109.328C53.7886 109.193 54.4681 109.262 55.0857 109.526C55.7032 109.79 56.231 110.237 56.6023 110.81C56.9737 111.384 57.1719 112.058 57.1719 112.748C57.1701 113.672 56.8135 114.557 56.1801 115.211C55.5467 115.864 54.6881 116.232 53.7924 116.234ZM53.7924 110.643C53.3873 110.643 52.9914 110.767 52.6548 110.999C52.3181 111.232 52.0558 111.562 51.9011 111.948C51.7464 112.334 51.7063 112.759 51.7858 113.169C51.8653 113.579 52.0609 113.955 52.3477 114.25C52.6346 114.545 52.9998 114.745 53.3972 114.826C53.7946 114.907 54.2063 114.864 54.5801 114.703C54.9539 114.542 55.2731 114.27 55.4971 113.922C55.7212 113.574 55.8401 113.165 55.8387 112.748C55.837 112.189 55.6206 111.654 55.237 111.259C54.8534 110.865 54.3339 110.643 53.7924 110.643Z" fill="#333333"/>
<path d="M61.0114 6.80087H50.6329C50.4561 6.80087 50.2865 6.72842 50.1615 6.59945C50.0365 6.47048 49.9663 6.29556 49.9663 6.11317C49.9663 5.93079 50.0365 5.75587 50.1615 5.6269C50.2865 5.49793 50.4561 5.42548 50.6329 5.42548H61.0114C61.1882 5.42548 61.3577 5.49793 61.4827 5.6269C61.6078 5.75587 61.678 5.93079 61.678 6.11317C61.678 6.29556 61.6078 6.47048 61.4827 6.59945C61.3577 6.72842 61.1882 6.80087 61.0114 6.80087Z" fill="#333333"/>
<path d="M48.1933 6.80087H46.5736C46.3968 6.80087 46.2272 6.72842 46.1022 6.59945C45.9772 6.47048 45.907 6.29556 45.907 6.11317C45.907 5.93079 45.9772 5.75587 46.1022 5.6269C46.2272 5.49793 46.3968 5.42548 46.5736 5.42548H48.1933C48.3701 5.42548 48.5397 5.49793 48.6647 5.6269C48.7897 5.75587 48.8599 5.93079 48.8599 6.11317C48.8599 6.29556 48.7897 6.47048 48.6647 6.59945C48.5397 6.72842 48.3701 6.80087 48.1933 6.80087Z" fill="#333333"/>
<path d="M27.916 39.0606C27.7634 39.0612 27.6151 39.0078 27.4961 38.9093L23.6966 35.7527C23.6282 35.696 23.5712 35.6258 23.5291 35.5463C23.487 35.4668 23.4605 35.3795 23.4513 35.2893C23.442 35.1992 23.45 35.1081 23.475 35.0212C23.4999 34.9344 23.5413 34.8534 23.5966 34.7831C23.7076 34.6424 23.8679 34.5527 24.0427 34.5333C24.2174 34.514 24.3925 34.5667 24.5298 34.6799L28.3293 37.8365C28.3983 37.8927 28.4558 37.9625 28.4985 38.0418C28.5412 38.121 28.5683 38.2083 28.5782 38.2984C28.5881 38.3885 28.5807 38.4798 28.5563 38.5669C28.5318 38.654 28.491 38.7353 28.436 38.8061C28.3732 38.8859 28.294 38.9502 28.204 38.9942C28.114 39.0382 28.0156 39.0609 27.916 39.0606Z" fill="#F4F9EC"/>
<path d="M26.0095 43.3451C25.9608 43.3518 25.9115 43.3518 25.8628 43.3451L20.8569 42.2104C20.7693 42.191 20.6863 42.154 20.6127 42.1015C20.539 42.049 20.4761 41.982 20.4275 41.9044C20.3789 41.8268 20.3456 41.7401 20.3295 41.6493C20.3134 41.5584 20.3148 41.4651 20.3336 41.3748C20.3524 41.2845 20.3883 41.1989 20.4392 41.1229C20.4901 41.0469 20.555 40.982 20.6302 40.9319C20.7054 40.8817 20.7894 40.8474 20.8775 40.8308C20.9656 40.8141 21.0559 40.8156 21.1435 40.835L26.1494 41.9697C26.3262 41.9888 26.4884 42.0797 26.6003 42.2222C26.7122 42.3647 26.7646 42.5472 26.746 42.7296C26.7275 42.912 26.6394 43.0793 26.5013 43.1947C26.3632 43.3101 26.1862 43.3642 26.0095 43.3451Z" fill="#F4F9EC"/>
</svg>
