<svg width="40" height="40" viewBox="0 0 40 40" fill="none" xmlns="http://www.w3.org/2000/svg">
<g clip-path="url(#clip0_450_6490)">
<path d="M1.42964 1.18515C0.765581 1.84013 0.164019 2.4795 0.101519 2.60426C0.0312064 2.74461 -4.35943e-05 2.93174 0.0233939 3.09549C0.0468314 3.23584 0.843706 4.63155 1.81246 6.24558C3.30464 8.73291 3.59371 9.16176 3.80464 9.25533C3.96871 9.31771 4.39839 9.3567 5.05464 9.3567H6.05464L10.7968 14.1364L15.5312 18.9239L12.6953 21.7544L9.85933 24.5848L9.35933 24.4756C9.06246 24.4054 8.43746 24.3664 7.77339 24.3742C6.83589 24.3742 6.57027 24.4054 5.91402 24.5848C4.40621 24.998 3.26558 25.6764 2.19527 26.7914C1.01558 28.0156 0.367144 29.3099 0.117144 30.9551C-0.0781686 32.2027 -4.35989e-05 33.3489 0.351519 34.5263C0.492144 35.0019 0.796831 35.2436 1.24996 35.2436C1.49214 35.2436 1.66402 35.0955 3.28121 33.4892L5.04683 31.7349H5.78121H6.52339L7.40621 32.616L8.28121 33.4892V34.269V35.0487L6.57027 36.7563C5.50777 37.8167 4.84371 38.5341 4.82027 38.6588C4.76558 38.9551 4.90621 39.3606 5.11714 39.5009C5.81246 39.9532 8.18746 40.1481 9.51558 39.8518C11.0859 39.5087 12.3984 38.7758 13.5 37.6296C14.4531 36.6393 15.0937 35.5321 15.4687 34.23C15.7031 33.4269 15.7656 31.5477 15.5937 30.7602L15.4765 30.2144L17.7578 27.9298L20.039 25.6452L20.5234 26.1598L21.0156 26.6822L20.7109 27.0253C20.375 27.4074 20.3125 27.6023 20.4062 27.9688C20.4921 28.3041 20.8125 28.538 21.1875 28.538C21.4296 28.538 21.5546 28.4756 21.8203 28.2339L22.1562 27.922L27.2031 33.3957C29.9843 36.4132 32.414 38.9863 32.6093 39.1267C33.039 39.4386 33.7031 39.7505 34.2421 39.8908C34.7812 40.0312 36.0234 40.0312 36.6015 39.883C37.9609 39.5321 39.1328 38.5575 39.7343 37.2631C39.9531 36.7797 39.9609 36.7173 39.9843 35.4074C40.0078 34.1598 40 34.0195 39.8359 33.614C39.414 32.5614 39.3281 32.4678 33.539 27.1657C30.5156 24.3976 28.0468 22.113 28.0468 22.0896C28.0468 22.0662 28.1718 21.9103 28.3203 21.7466C28.7812 21.2319 28.664 20.5692 28.0625 20.3431C27.7656 20.2261 27.4375 20.3353 27.0781 20.6627L26.7578 20.959L26.2343 20.4756L25.7109 19.9922L28 17.7076L30.2968 15.4152L30.7578 15.5009C31.9843 15.7349 33.2031 15.6881 34.4375 15.3528C36.9609 14.6744 39.1328 12.5146 39.8359 9.98048C39.9765 9.48145 40 9.17736 40 7.79724C40 6.46391 39.9765 6.10523 39.8515 5.66079C39.6718 5.00582 39.5078 4.82648 39.0234 4.7797L38.664 4.73291L36.8906 6.50289L35.1093 8.26508H34.3906H33.6718L32.8125 7.38398L31.9609 6.51069L31.9531 5.74656V4.97463L33.625 3.26702C34.7031 2.16761 35.3046 1.48145 35.3359 1.35669C35.3906 1.0448 35.25 0.639343 35.039 0.498993C34.4375 0.101334 32.1875 -0.132584 30.9843 0.0701447C29.3046 0.358643 27.8515 1.13057 26.6562 2.37034C25.7031 3.36059 25.1015 4.38983 24.7187 5.66859C24.4531 6.56527 24.375 8.38204 24.5625 9.23973L24.6796 9.78555L21.8125 12.6549L18.9453 15.5165L14.164 10.7446L9.37496 5.96488V4.93564C9.37496 4.30406 9.33589 3.82843 9.28121 3.70367C9.21089 3.54773 8.42183 3.0409 6.26558 1.74656C3.60933 0.163712 3.31246 -3.05176e-05 2.99214 -3.05176e-05C2.64058 -3.05176e-05 2.62496 0.00776672 1.42964 1.18515ZM32.6093 1.88691C32.4843 2.02726 31.9218 2.61985 31.3515 3.20465L30.3125 4.26508V5.71537V7.16566L31.5 8.41323C32.1484 9.09938 32.7968 9.71537 32.9375 9.78555C33.2343 9.9259 35.3984 9.95708 35.7578 9.82453C35.875 9.77775 36.5546 9.16956 37.2578 8.4756L38.5312 7.21244L38.4921 8.03116C38.4296 9.0448 38.2265 9.80114 37.75 10.7212C37.4609 11.2904 37.25 11.5633 36.6406 12.1715C35.9921 12.8265 35.7968 12.959 35.0781 13.3177C34.0156 13.8401 33.4062 13.9883 32.2656 13.9883C31.5781 13.9883 31.2187 13.9493 30.7109 13.8167C30.3515 13.7154 29.9609 13.6608 29.8515 13.6842C29.7109 13.7154 27.0625 16.3041 21.6875 21.6686L13.7265 29.614L13.7734 30.0273C13.8046 30.2612 13.875 30.6744 13.9375 30.9551C14.0078 31.2358 14.0625 31.8128 14.0625 32.2417C14.0625 33.9649 13.3828 35.4854 12.0546 36.7251C10.9375 37.7622 9.72652 38.269 8.20308 38.3392L7.30464 38.3781L8.61714 37.0604L9.92183 35.7349V34.269V32.8109L8.70308 31.5711C8.03121 30.8928 7.36714 30.2846 7.22652 30.2222C6.92183 30.074 4.76558 30.0429 4.39839 30.1754C4.28121 30.2222 3.60933 30.8304 2.90621 31.5243L1.64058 32.7875V32.2417C1.64839 31.4931 1.81246 30.6432 2.08589 29.9337C2.77339 28.1793 4.41402 26.7134 6.28902 26.191C7.17183 25.9415 8.52339 25.9415 9.44527 26.191C9.80464 26.2846 10.1875 26.3392 10.3046 26.3158C10.4453 26.2846 13.039 23.7505 18.4687 18.3314L26.4296 10.3859L26.3828 9.97268C26.3515 9.73876 26.2812 9.32551 26.2187 9.0448C25.8515 7.49314 26.2421 5.6218 27.2187 4.25728C28.3906 2.61205 30.1953 1.66079 32.1406 1.64519L32.8437 1.63739L32.6093 1.88691ZM7.73433 5.47365C7.73433 5.97268 7.77339 6.4795 7.82027 6.60426C7.85933 6.72122 10.1015 9.02141 12.8359 11.7583L17.7734 16.6861L17.25 17.2008L16.7343 17.7232L11.75 12.7173L6.75777 7.71147L5.69527 7.71927H4.63277L3.24214 5.41127L1.85933 3.10328L2.49996 2.45611L3.14058 1.80894L5.43746 3.18905L7.73433 4.56137V5.47365ZM25.0781 21.6764L25.5859 22.1364L23.9062 23.8128C22.9843 24.7407 22.2109 25.4892 22.1875 25.4892C22.164 25.4815 21.9375 25.2553 21.6796 24.9746L21.2187 24.4756L22.8515 22.846C23.7578 21.9415 24.5078 21.2085 24.5312 21.2085C24.5546 21.2163 24.7968 21.4191 25.0781 21.6764ZM32.164 28.1559C35.0781 30.8148 37.6093 33.1696 37.789 33.3801C39.0546 34.8694 38.5312 37.1774 36.7187 38.074C36.25 38.308 36.1562 38.3236 35.4296 38.3236C34.7109 38.3236 34.6093 38.3002 34.1406 38.074C33.8593 37.9415 33.5078 37.7154 33.3437 37.5672C33.1875 37.4269 31 35.0643 28.4765 32.3197C25.9453 29.575 23.7578 27.1969 23.6015 27.0331L23.3281 26.7446L25.039 25.0292C25.9843 24.0857 26.7812 23.3138 26.8125 23.3138C26.8437 23.3138 29.2578 25.4892 32.164 28.1559Z" fill="#9DA0A3"/>
<path d="M26.7812 12.2105C26.5 12.3586 26.4062 12.5457 26.4062 12.9434C26.4062 13.8401 27.7188 14.0038 27.9531 13.1383C28.1562 12.421 27.4297 11.8518 26.7812 12.2105Z" fill="#9DA0A3"/>
<path d="M24.6484 14.3781C24.5234 14.4405 22.1562 16.7485 19.3984 19.5087L14.375 24.5301V24.8498C14.375 25.4658 14.9453 25.8557 15.4922 25.6218C15.6328 25.5594 17.8984 23.3605 20.7656 20.4911L25.7812 15.4697V15.1422C25.7812 14.5418 25.1797 14.1364 24.6484 14.3781Z" fill="#9DA0A3"/>
<path d="M12.5234 26.4328C12.0937 26.6901 12.0468 27.384 12.4296 27.7037C12.9687 28.1482 13.75 27.8129 13.75 27.1345C13.75 26.7291 13.6484 26.5419 13.3593 26.3938C13.0546 26.2378 12.8203 26.2456 12.5234 26.4328Z" fill="#9DA0A3"/>
<path d="M27.4531 27.0253C27.0547 27.2203 26.8906 27.7427 27.1016 28.1247C27.1406 28.2027 28.8281 29.9025 30.8359 31.9064L34.5 35.5555H34.8594C35.4687 35.5555 35.8359 35.0097 35.6016 34.4561C35.4531 34.1208 28.4062 27.0955 28.1016 26.9863C27.8125 26.8772 27.7422 26.8772 27.4531 27.0253Z" fill="#9DA0A3"/>
</g>
<defs>
<clipPath id="clip0_450_6490">
<rect width="40" height="40" fill="white"/>
</clipPath>
</defs>
</svg>
