<svg width="110" height="121" viewBox="0 0 110 121" fill="none" xmlns="http://www.w3.org/2000/svg">
<path d="M88.4471 0.925659H22.4564C18.928 0.925659 16.0676 3.70963 16.0676 7.14383V113.571C16.0676 117.006 18.928 119.79 22.4564 119.79H88.4471C91.9756 119.79 94.8359 117.006 94.8359 113.571V7.14383C94.8359 3.70963 91.9756 0.925659 88.4471 0.925659Z" fill="#95C343"/>
<path d="M88.447 120.425H22.4562C20.5932 120.415 18.81 119.688 17.4957 118.403C16.1814 117.117 15.4428 115.378 15.4411 113.565V7.14393C15.4428 5.3251 16.186 3.58125 17.5074 2.29515C18.8288 1.00904 20.6204 0.285757 22.4892 0.284058H88.447C90.3157 0.285757 92.1074 1.00904 93.4288 2.29515C94.7502 3.58125 95.4933 5.3251 95.495 7.14393V113.565C95.4933 115.384 94.7502 117.128 93.4288 118.414C92.1074 119.7 90.3157 120.423 88.447 120.425ZM22.4562 1.56748C20.9429 1.57763 19.4951 2.16943 18.4281 3.21394C17.3611 4.25844 16.7614 5.67102 16.7597 7.14393V113.565C16.7615 115.043 17.3657 116.461 18.4398 117.506C19.5139 118.552 20.9702 119.14 22.4892 119.141H88.447C89.966 119.14 91.4223 118.552 92.4964 117.506C93.5705 116.461 94.1747 115.043 94.1764 113.565V7.14393C94.1747 5.66549 93.5705 4.24808 92.4964 3.20266C91.4223 2.15724 89.966 1.56917 88.447 1.56748H22.4562Z" fill="#333333"/>
<path d="M87.7481 12.9256H23.1551C21.3089 12.9256 19.8123 14.3822 19.8123 16.1791V102.63C19.8123 104.427 21.3089 105.884 23.1551 105.884H87.7481C89.5942 105.884 91.0908 104.427 91.0908 102.63V16.1791C91.0908 14.3822 89.5942 12.9256 87.7481 12.9256Z" fill="white"/>
<path d="M87.748 106.519H23.1352C22.0749 106.519 21.058 106.109 20.3077 105.38C19.5573 104.651 19.1349 103.662 19.1332 102.63V16.1791C19.1332 15.1461 19.5548 14.1553 20.3053 13.4248C21.0559 12.6943 22.0738 12.2839 23.1352 12.2839H87.748C88.8094 12.2839 89.8273 12.6943 90.5779 13.4248C91.3284 14.1553 91.75 15.1461 91.75 16.1791V102.63C91.7483 103.662 91.3259 104.651 90.5755 105.38C89.8252 106.109 88.8083 106.519 87.748 106.519ZM23.1352 13.5674C22.4235 13.5674 21.741 13.8425 21.2378 14.3323C20.7345 14.8221 20.4518 15.4864 20.4518 16.1791V102.63C20.4536 103.322 20.737 103.984 21.2401 104.473C21.7431 104.961 22.4247 105.236 23.1352 105.236H87.748C88.4585 105.236 89.1401 104.961 89.6431 104.473C90.1462 103.984 90.4297 103.322 90.4314 102.63V16.1791C90.4314 15.4864 90.1487 14.8221 89.6455 14.3323C89.1422 13.8425 88.4597 13.5674 87.748 13.5674H23.1352Z" fill="#333333"/>
<path d="M45.2882 8.54278C45.8563 8.54278 46.3168 8.09459 46.3168 7.54171C46.3168 6.98884 45.8563 6.54065 45.2882 6.54065C44.7202 6.54065 44.2597 6.98884 44.2597 7.54171C44.2597 8.09459 44.7202 8.54278 45.2882 8.54278Z" fill="#333333"/>
<path d="M66.6434 8.18363H50.2001C50.0253 8.18363 49.8576 8.11602 49.7339 7.99567C49.6103 7.87533 49.5408 7.71211 49.5408 7.54192C49.5408 7.37173 49.6103 7.2085 49.7339 7.08816C49.8576 6.96782 50.0253 6.90021 50.2001 6.90021H66.6434C66.8183 6.90021 66.986 6.96782 67.1097 7.08816C67.2333 7.2085 67.3028 7.37173 67.3028 7.54192C67.3028 7.71211 67.2333 7.87533 67.1097 7.99567C66.986 8.11602 66.8183 8.18363 66.6434 8.18363Z" fill="#333333"/>
<path d="M55.4548 116.671C57.8472 116.671 59.7865 114.783 59.7865 112.455C59.7865 110.126 57.8472 108.239 55.4548 108.239C53.0625 108.239 51.1231 110.126 51.1231 112.455C51.1231 114.783 53.0625 116.671 55.4548 116.671Z" fill="#333333"/>
<path d="M68.7665 80.8123V75.3513C68.7665 69.3385 62.7271 64.4423 55.2835 64.4423C47.8398 64.4423 41.8137 69.3385 41.8137 75.3513V80.8123H68.7665Z" fill="white"/>
<path d="M68.7665 81.4538H41.8137C41.6388 81.4538 41.4711 81.3862 41.3475 81.2659C41.2239 81.1456 41.1544 80.9823 41.1544 80.8121V75.3512C41.1544 68.9918 47.5036 63.8004 55.2967 63.8004C63.0898 63.8004 69.439 68.9726 69.439 75.3512V80.8121C69.439 80.8975 69.4215 80.982 69.3875 81.0607C69.3536 81.1394 69.3038 81.2107 69.2412 81.2705C69.1786 81.3302 69.1043 81.3772 69.0228 81.4087C68.9413 81.4402 68.8542 81.4556 68.7665 81.4538ZM42.4598 80.1704H68.1072V75.3512C68.1072 69.6977 62.3513 65.0838 55.2835 65.0838C48.2156 65.0838 42.4598 69.6785 42.4598 75.3512V80.1704Z" fill="#333333"/>
<path d="M53.9582 25.702H57.3735C61.5264 25.702 65.5093 27.3077 68.4458 30.1659C71.3824 33.0241 73.0322 36.9006 73.0322 40.9426V52.3009H38.3061V40.9426C38.3061 36.9017 39.9549 33.0261 42.8901 30.1682C45.8252 27.3102 49.8064 25.7037 53.9582 25.702Z" fill="white"/>
<path d="M73.0322 52.9491H38.3061C38.1312 52.9491 37.9636 52.8815 37.8399 52.7612C37.7163 52.6408 37.6468 52.4776 37.6468 52.3074V40.9556C37.6468 36.7432 39.3647 32.7032 42.4231 29.7228C45.4815 26.7424 49.6303 25.0655 53.9582 25.0604H57.3735C61.7002 25.0638 65.8487 26.7382 68.9082 29.716C71.9677 32.6938 73.688 36.7315 73.6915 40.9427V52.2946C73.6933 52.3799 73.6775 52.4647 73.6451 52.5441C73.6128 52.6234 73.5645 52.6957 73.5031 52.7566C73.4417 52.8176 73.3684 52.866 73.2876 52.8991C73.2067 52.9321 73.1199 52.9491 73.0322 52.9491ZM38.9654 51.6657H72.3729V40.9556C72.3729 37.0825 70.793 33.3679 67.9805 30.6281C65.1679 27.8882 61.3528 26.3472 57.3735 26.3438H53.9582C49.9824 26.3489 46.1709 27.8889 43.3602 30.6258C40.5494 33.3627 38.9689 37.073 38.9654 40.9427V51.6657Z" fill="#333333"/>
<path d="M52.9364 63.4668H57.8945V66.2454C57.8945 66.7883 57.6729 67.309 57.2785 67.6929C56.884 68.0768 56.3491 68.2924 55.7913 68.2924H55.0462C54.4884 68.2924 53.9535 68.0768 53.559 67.6929C53.1646 67.309 52.943 66.7883 52.943 66.2454V63.4668H52.9364Z" fill="white"/>
<path d="M55.7847 68.9343H55.0397C54.3075 68.9326 53.6059 68.6487 53.0882 68.1449C52.5705 67.641 52.2789 66.9581 52.2771 66.2455V63.4669C52.2771 63.2967 52.3466 63.1335 52.4702 63.0131C52.5939 62.8928 52.7616 62.8252 52.9364 62.8252H57.8879C58.0628 62.8252 58.2305 62.8928 58.3541 63.0131C58.4778 63.1335 58.5472 63.2967 58.5472 63.4669V66.2455C58.5455 66.9581 58.2539 67.641 57.7362 68.1449C57.2185 68.6487 56.5168 68.9326 55.7847 68.9343ZM53.5958 64.1086V66.2455C53.5975 66.6177 53.7502 66.9742 54.0206 67.2374C54.291 67.5006 54.6572 67.6492 55.0397 67.6508H55.7847C56.1671 67.6492 56.5333 67.5006 56.8038 67.2374C57.0742 66.9742 57.2269 66.6177 57.2286 66.2455V64.1086H53.5958Z" fill="#333333"/>
<path d="M41.2467 54.9769C43.9049 54.9769 46.0597 53.1697 46.0597 50.9405C46.0597 48.7113 43.9049 46.9042 41.2467 46.9042C38.5886 46.9042 36.4337 48.7113 36.4337 50.9405C36.4337 53.1697 38.5886 54.9769 41.2467 54.9769Z" fill="white"/>
<path d="M41.2468 55.6186C38.2337 55.6186 35.7744 53.5203 35.7744 50.9406C35.7744 48.3609 38.2337 46.2561 41.2468 46.2561C44.2598 46.2561 46.7257 48.3609 46.7257 50.9406C46.7257 53.5203 44.2664 55.6186 41.2468 55.6186ZM41.2468 47.5395C38.9589 47.5395 37.0931 49.0668 37.0931 50.9406C37.0931 52.8144 38.9589 54.3352 41.2468 54.3352C43.5346 54.3352 45.407 52.8144 45.407 50.9406C45.407 49.0668 43.5412 47.5203 41.2468 47.5203V47.5395Z" fill="#333333"/>
<path d="M69.3204 54.9769C71.9785 54.9769 74.1334 53.1697 74.1334 50.9405C74.1334 48.7113 71.9785 46.9042 69.3204 46.9042C66.6622 46.9042 64.5074 48.7113 64.5074 50.9405C64.5074 53.1697 66.6622 54.9769 69.3204 54.9769Z" fill="white"/>
<path d="M69.3203 55.6186C66.3006 55.6186 63.8414 53.5203 63.8414 50.9406C63.8414 48.3609 66.3006 46.2561 69.3203 46.2561C72.3399 46.2561 74.7926 48.3609 74.7926 50.9406C74.7926 53.5203 72.3333 55.6186 69.3203 55.6186ZM69.3203 47.5395C67.0259 47.5395 65.16 49.0668 65.16 50.9406C65.16 52.8144 67.0259 54.3352 69.3203 54.3352C71.6147 54.3352 73.474 52.8144 73.474 50.9406C73.474 49.0668 71.6081 47.5203 69.3203 47.5203V47.5395Z" fill="#333333"/>
<path d="M55.4088 64.1023C51.5618 64.1023 47.8724 62.6149 45.1522 59.9673C42.432 57.3198 40.9038 53.7289 40.9038 49.9847V42.0467C40.9038 41.3699 41.0413 40.6997 41.3085 40.0747C41.5756 39.4498 41.9671 38.8824 42.4603 38.4053C42.9536 37.9282 43.539 37.5507 44.1827 37.2946C44.8265 37.0385 45.5159 36.9088 46.2113 36.9131H64.626C65.3214 36.9088 66.0108 37.0385 66.6546 37.2946C67.2983 37.5507 67.8837 37.9282 68.3769 38.4053C68.8702 38.8824 69.2617 39.4498 69.5288 40.0747C69.7959 40.6997 69.9335 41.3699 69.9334 42.0467V49.9654C69.936 51.8226 69.5621 53.6621 68.8331 55.3784C68.1041 57.0947 67.0343 58.6541 65.6851 59.9674C64.3358 61.2806 62.7336 62.3218 60.9702 63.0314C59.2068 63.7409 57.3169 64.1048 55.4088 64.1023Z" fill="white"/>
<path d="M55.4088 64.7437C51.3896 64.7352 47.5376 63.1775 44.6957 60.4114C41.8537 57.6454 40.2532 53.8962 40.2445 49.9844V42.0464C40.255 40.5123 40.888 39.0444 42.0057 37.9625C43.1234 36.8807 44.6351 36.2727 46.2113 36.2711H64.626C66.2023 36.2727 67.714 36.8807 68.8316 37.9625C69.9493 39.0444 70.5823 40.5123 70.5928 42.0464V49.9651C70.5893 53.8836 68.9884 57.6406 66.1416 60.4114C63.2948 63.1822 59.4347 64.7403 55.4088 64.7437ZM46.1784 37.5224C44.9513 37.5224 43.774 37.9946 42.9032 38.8361C42.0325 39.6776 41.5389 40.8201 41.5302 42.0144V49.933C41.5302 53.5113 42.9907 56.9431 45.5903 59.4733C48.19 62.0035 51.7158 63.425 55.3923 63.425C59.0687 63.425 62.5946 62.0035 65.1943 59.4733C67.7939 56.9431 69.2544 53.5113 69.2544 49.933V42.0464C69.2457 40.8522 68.7521 39.7097 67.8813 38.8682C67.0106 38.0267 65.8333 37.5544 64.6062 37.5545L46.1784 37.5224Z" fill="#333333"/>
<path d="M47.3717 81.1009C47.1969 81.1009 47.0292 81.0333 46.9055 80.913C46.7819 80.7926 46.7124 80.6294 46.7124 80.4592V73.9073C46.7124 73.7371 46.7819 73.5739 46.9055 73.4536C47.0292 73.3332 47.1969 73.2656 47.3717 73.2656C47.5466 73.2656 47.7143 73.3332 47.8379 73.4536C47.9616 73.5739 48.031 73.7371 48.031 73.9073V80.4592C48.031 80.6294 47.9616 80.7926 47.8379 80.913C47.7143 81.0333 47.5466 81.1009 47.3717 81.1009Z" fill="#333333"/>
<path d="M63.1952 81.1009C63.0204 81.1009 62.8527 81.0333 62.729 80.913C62.6054 80.7926 62.5359 80.6294 62.5359 80.4592V73.9073C62.5359 73.7371 62.6054 73.5739 62.729 73.4536C62.8527 73.3332 63.0204 73.2656 63.1952 73.2656C63.3701 73.2656 63.5378 73.3332 63.6614 73.4536C63.7851 73.5739 63.8545 73.7371 63.8545 73.9073V80.4592C63.8545 80.6294 63.7851 80.7926 63.6614 80.913C63.5378 81.0333 63.3701 81.1009 63.1952 81.1009Z" fill="#333333"/>
<path d="M6.59984 35.1674H28.2649L31.4164 40.5128V35.1674H33.0317C34.6055 35.1674 36.1148 34.5589 37.2276 33.4758C38.3404 32.3927 38.9656 30.9238 38.9656 29.392V25.3364C38.9656 23.8047 38.3404 22.3357 37.2276 21.2526C36.1148 20.1695 34.6055 19.561 33.0317 19.561H6.59984C5.02609 19.561 3.5168 20.1695 2.40399 21.2526C1.29119 22.3357 0.666016 23.8047 0.666016 25.3364V29.4049C0.669508 30.9344 1.29622 32.4001 2.40865 33.4804C3.52108 34.5607 5.02838 35.1674 6.59984 35.1674Z" fill="#6B6B6B"/>
<path d="M31.4163 41.1545C31.3001 41.155 31.1859 41.1256 31.0852 41.0692C30.9845 41.0129 30.9008 40.9316 30.8427 40.8337L27.8824 35.8091H6.59314C4.84453 35.8091 3.16754 35.133 1.93109 33.9296C0.694633 32.7261 0 31.0939 0 29.392V25.3364C0 23.6345 0.694633 22.0023 1.93109 20.7988C3.16754 19.5954 4.84453 18.9193 6.59314 18.9193H33.0316C34.7802 18.9193 36.4572 19.5954 37.6937 20.7988C38.9301 22.0023 39.6248 23.6345 39.6248 25.3364V29.4048C39.6248 31.1068 38.9301 32.739 37.6937 33.9424C36.4572 35.1459 34.7802 35.8219 33.0316 35.8219H32.0756V40.5257C32.0807 40.6705 32.0353 40.8128 31.9467 40.9294C31.8581 41.0459 31.7316 41.1298 31.5877 41.1674C31.5303 41.1694 31.4728 41.1651 31.4163 41.1545ZM6.59314 20.222C5.19425 20.222 3.85266 20.7628 2.8635 21.7256C1.87434 22.6884 1.31863 23.9941 1.31863 25.3557V29.4241C1.31863 30.7856 1.87434 32.0914 2.8635 33.0542C3.85266 34.0169 5.19425 34.5578 6.59314 34.5578H28.2648C28.381 34.5573 28.4952 34.5868 28.5959 34.6431C28.6967 34.6994 28.7803 34.7807 28.8384 34.8786L30.757 38.1385V35.1995C30.757 35.0293 30.8265 34.8661 30.9501 34.7457C31.0738 34.6254 31.2415 34.5578 31.4163 34.5578H33.0316C34.4305 34.5578 35.7721 34.0169 36.7613 33.0542C37.7504 32.0914 38.3061 30.7856 38.3061 29.4241V25.3364C38.3061 23.9749 37.7504 22.6691 36.7613 21.7064C35.7721 20.7436 34.4305 20.2027 33.0316 20.2027L6.59314 20.222Z" fill="#333333"/>
<path d="M12.7444 25.7407L14.8938 25.0605L15.3883 26.5813L13.2389 27.223L14.6037 29.0455L13.2389 30.0209L11.8544 28.1792L10.5357 29.9439L9.21711 28.9621L10.6017 27.223L8.41275 26.4851L8.9402 24.9642L11.0896 25.715V23.5332H12.7708L12.7444 25.7407Z" fill="white"/>
<path d="M20.6695 25.7407L22.8254 25.0605L23.3133 26.5813L21.164 27.223L22.5288 29.0455L21.164 30.0209L19.7794 28.1792L18.4608 29.9439L17.1422 28.9621L18.5267 27.223L16.3378 26.4851L16.8653 24.9642L19.0212 25.715V23.5332H20.6959L20.6695 25.7407Z" fill="white"/>
<path d="M28.6275 25.7407L30.7505 25.0605L31.245 26.5813L29.089 27.223L30.4538 29.0455L29.089 30.0209L27.7045 28.1792L26.3858 29.9439L25.0672 28.9621L26.4518 27.223L24.2628 26.4851L24.7903 24.9642L26.9463 25.715V23.5332H28.6275V25.7407Z" fill="white"/>
<path d="M94.8359 92.658C102.836 92.658 109.321 86.346 109.321 78.5597C109.321 70.7734 102.836 64.4613 94.8359 64.4613C86.836 64.4613 80.3508 70.7734 80.3508 78.5597C80.3508 86.346 86.836 92.658 94.8359 92.658Z" fill="#95C343"/>
<path d="M94.8358 93.3C91.8366 93.3 88.9048 92.4344 86.411 90.8126C83.9173 89.1908 81.9736 86.8858 80.8259 84.1888C79.6781 81.4919 79.3778 78.5243 79.963 75.6613C80.5481 72.7983 81.9923 70.1684 84.1131 68.1043C86.2338 66.0402 88.9358 64.6345 91.8774 64.065C94.819 63.4955 97.868 63.7878 100.639 64.9049C103.41 66.022 105.778 67.9137 107.444 70.3409C109.111 72.768 110 75.6216 110 78.5407C110 82.4551 108.402 86.2092 105.559 88.9771C102.715 91.745 98.8576 93.3 94.8358 93.3ZM94.8358 65.1033C92.0974 65.1033 89.4205 65.8936 87.1436 67.3744C84.8667 68.8551 83.0921 70.9598 82.0441 73.4222C80.9962 75.8846 80.722 78.5942 81.2562 81.2082C81.7905 83.8223 83.1091 86.2235 85.0455 88.1081C86.9818 89.9927 89.4489 91.2762 92.1347 91.7962C94.8204 92.3161 97.6043 92.0493 100.134 91.0293C102.664 90.0093 104.827 88.2821 106.348 86.066C107.869 83.8499 108.681 81.2445 108.681 78.5792C108.681 75.0052 107.223 71.5775 104.626 69.0503C102.03 66.5231 98.5079 65.1033 94.8358 65.1033Z" fill="#333333"/>
<path d="M91.2095 85.2465L86.1723 80.3438C86.0193 80.1936 85.9335 79.9906 85.9335 79.7791C85.9335 79.5676 86.0193 79.3646 86.1723 79.2144L87.7613 77.6807C87.9145 77.5322 88.1219 77.4488 88.3382 77.4488C88.5544 77.4488 88.7618 77.5322 88.9151 77.6807L91.4468 80.1513C91.5457 80.2473 91.6797 80.3012 91.8193 80.3012C91.959 80.3012 92.093 80.2473 92.1918 80.1513L100.493 72.1043C100.603 71.9966 100.734 71.9111 100.878 71.8528C101.022 71.7945 101.177 71.7645 101.333 71.7645C101.489 71.7645 101.644 71.7945 101.788 71.8528C101.933 71.9111 102.064 71.9966 102.174 72.1043L103.229 73.131C103.34 73.2379 103.429 73.3652 103.489 73.5057C103.549 73.6462 103.581 73.7969 103.581 73.9492C103.581 74.1014 103.549 74.2522 103.489 74.3927C103.429 74.5331 103.34 74.6605 103.229 74.7674L92.449 85.2465C92.2845 85.4063 92.0616 85.4962 91.8292 85.4962C91.5968 85.4962 91.3739 85.4063 91.2095 85.2465Z" fill="white"/>
<path d="M71.5949 86.8633H37.7589C35.4139 86.8633 33.5129 88.7135 33.5129 90.9959C33.5129 93.2783 35.4139 95.1285 37.7589 95.1285H71.5949C73.9399 95.1285 75.8409 93.2783 75.8409 90.9959C75.8409 88.7135 73.9399 86.8633 71.5949 86.8633Z" fill="#CEE3A9"/>
<path d="M71.5949 95.7703H37.7589C36.458 95.7703 35.2103 95.2673 34.2904 94.372C33.3704 93.4766 32.8536 92.2622 32.8536 90.996C32.8536 89.7298 33.3704 88.5154 34.2904 87.62C35.2103 86.7247 36.458 86.2217 37.7589 86.2217H71.5949C72.8959 86.2217 74.1436 86.7247 75.0635 87.62C75.9834 88.5154 76.5002 89.7298 76.5002 90.996C76.5002 92.2622 75.9834 93.4766 75.0635 94.372C74.1436 95.2673 72.8959 95.7703 71.5949 95.7703ZM37.7589 87.5051C36.8077 87.5051 35.8954 87.8729 35.2228 88.5276C34.5501 89.1822 34.1723 90.0702 34.1723 90.996C34.1723 91.9218 34.5501 92.8098 35.2228 93.4644C35.8954 94.1191 36.8077 94.4869 37.7589 94.4869H71.5949C72.5462 94.4869 73.4585 94.1191 74.1311 93.4644C74.8037 92.8098 75.1816 91.9218 75.1816 90.996C75.1816 90.0702 74.8037 89.1822 74.1311 88.5276C73.4585 87.8729 72.5462 87.5051 71.5949 87.5051H37.7589Z" fill="#333333"/>
</svg>
