<svg width="24" height="24" viewBox="0 0 24 24" fill="none" xmlns="http://www.w3.org/2000/svg">
<path d="M10.7812 0.0328121C9.91874 0.121874 8.86874 0.356249 7.99218 0.65625C6.8953 1.03125 5.49843 1.8 4.52811 2.56875C4.04999 2.94375 3.04686 3.9375 2.64843 4.43437C1.34999 6.04219 0.510926 7.90312 0.135926 10.0172C0.0093632 10.7156 -0.0421993 12.5297 0.0421757 13.2703C0.290613 15.4547 1.09218 17.4844 2.40936 19.2703L2.53593 19.4344L2.40468 19.7156C2.2828 19.9688 2.27343 20.0391 2.27343 20.5312C2.27343 21.0375 2.2828 21.0891 2.41874 21.3797C2.60624 21.7734 2.95311 22.1203 3.36093 22.3219C3.66561 22.4719 3.69843 22.4766 4.21874 22.4766C4.72968 22.4766 4.77655 22.4672 5.07186 22.3266C6.24374 21.7734 6.56718 20.2453 5.7328 19.2281C5.53124 18.9844 5.2453 18.7875 4.87968 18.6516C4.52343 18.5203 3.91405 18.5203 3.56249 18.6516C3.3703 18.7266 3.2953 18.7359 3.24843 18.6937C3.21093 18.6656 3.01874 18.3937 2.81718 18.0984C1.84218 16.6359 1.22811 14.9531 1.02655 13.1766C0.946863 12.4594 0.993738 10.8516 1.11561 10.1719C1.32655 9.01406 1.58905 8.2125 2.10936 7.14375C3.7453 3.79219 6.99374 1.49062 10.7578 1.03125C11.3765 0.956249 12.7266 0.965624 13.3594 1.05469C14.3953 1.2 14.4422 1.2 14.6156 1.05469C14.7469 0.946875 14.7656 0.9 14.7656 0.707811C14.7656 0.285936 14.6156 0.210938 13.4906 0.0703125C12.9703 0.00468636 11.2687 -0.0187511 10.7812 0.0328121ZM4.67811 19.65C5.07655 19.8375 5.29686 20.325 5.18436 20.7609C5.05311 21.2672 4.67343 21.5391 4.15311 21.5062C3.61874 21.4734 3.27655 21.1312 3.24374 20.5969C3.21093 20.0812 3.4828 19.6969 3.97499 19.5656C4.2328 19.5 4.39686 19.5187 4.67811 19.65Z" fill="white"/>
<path d="M16.125 0.84839C15.9422 0.92339 15.8438 1.07808 15.8438 1.30308C15.8438 1.72495 16.3078 1.93589 16.6313 1.66401C17.0484 1.31245 16.6313 0.64214 16.125 0.84839Z" fill="white"/>
<path d="M19.1953 1.56093C18.4453 1.80937 17.9015 2.45156 17.8172 3.1875C17.7 4.17187 18.2015 5.00156 19.1203 5.34843C19.4765 5.47968 20.0859 5.47968 20.4375 5.34843C20.6297 5.27343 20.7047 5.26406 20.7515 5.30625C20.8875 5.41875 21.5531 6.46406 21.8109 6.97031C22.3781 8.08125 22.7906 9.41718 22.9453 10.6359C23.0437 11.4141 23.0203 13.0406 22.9031 13.7344C22.3687 16.8375 20.6625 19.4719 18.0703 21.1969C17.4469 21.6141 16.439 22.125 15.7312 22.3828C14.0719 22.9922 12.1547 23.1703 10.2656 22.8984C9.94217 22.8516 9.61874 22.8281 9.54842 22.8469C9.47342 22.8656 9.37967 22.9406 9.32811 23.0297C9.11249 23.3766 9.28592 23.7234 9.71717 23.8078C10.7062 24.0094 12.4125 24.0609 13.5 23.9297C16.2375 23.5922 18.6703 22.3734 20.625 20.3625C22.4672 18.4641 23.6062 16.0969 23.9297 13.5C24.0234 12.7312 24.0234 11.2406 23.9297 10.5141C23.6484 8.38593 22.875 6.46875 21.5906 4.72968L21.464 4.56562L21.5953 4.28437C21.7172 4.03125 21.7265 3.96093 21.7265 3.46875C21.7265 2.94843 21.7219 2.91562 21.5672 2.60156C21.3656 2.18906 21.0281 1.86093 20.625 1.66875C20.3578 1.54218 20.264 1.52343 19.8515 1.51406C19.5562 1.50468 19.3125 1.52343 19.1953 1.56093ZM20.3156 2.625C20.4094 2.69062 20.5453 2.82656 20.6156 2.92968C20.7281 3.09375 20.7422 3.16406 20.7422 3.47812C20.7422 3.80156 20.7281 3.85781 20.6015 4.03593C20.1047 4.73906 19.0312 4.53749 18.8156 3.69843C18.7031 3.2625 18.9187 2.78437 19.3219 2.58281C19.6031 2.4375 20.0672 2.46093 20.3156 2.625Z" fill="white"/>
<path d="M10.2516 3.52029C10.0875 3.61872 10.0313 3.82029 10.0313 4.32654V4.81404L9.6422 4.9406C9.43126 5.01091 9.04689 5.1656 8.78908 5.29216L8.32033 5.51716L7.94064 5.15154C7.57033 4.7906 7.55158 4.78123 7.33126 4.78123H7.10158L5.94376 5.94372C4.83751 7.04998 4.78126 7.11091 4.78126 7.27966C4.78126 7.52341 4.86564 7.65935 5.2172 8.01091L5.52189 8.30622L5.2922 8.77966C5.17033 9.04216 5.01095 9.43122 4.94064 9.64216L4.81408 10.0312H4.32658C3.81564 10.0312 3.60939 10.0875 3.52501 10.2562C3.45001 10.3922 3.41251 13.4484 3.48283 13.6406C3.57189 13.8937 3.76876 13.9687 4.34533 13.9687H4.81876L4.96408 14.4C5.04376 14.639 5.20314 15.0234 5.31564 15.2578L5.5172 15.6797L5.15158 16.0594C4.79533 16.4297 4.78126 16.4484 4.78126 16.664V16.889L5.86876 17.9859C6.46876 18.5906 7.0172 19.1156 7.08751 19.1531C7.37345 19.3031 7.57501 19.2234 8.01095 18.7828L8.30626 18.4781L8.78439 18.7031C9.0422 18.825 9.43126 18.9844 9.64689 19.0547L10.0313 19.1812V19.6687C10.0313 20.189 10.0875 20.3906 10.261 20.4844C10.3875 20.55 13.6125 20.55 13.7391 20.4844C13.9125 20.3906 13.9688 20.189 13.9688 19.6687V19.1812L14.3578 19.0547C14.5688 18.9844 14.9578 18.825 15.2156 18.7031L15.6938 18.4781L15.9891 18.7828C16.425 19.2234 16.6266 19.3031 16.9125 19.1531C16.9828 19.1156 17.5313 18.5906 18.1313 17.9859L19.2188 16.889V16.664C19.2188 16.4484 19.2047 16.4297 18.8485 16.0594L18.4781 15.6797L18.661 15.3234C18.7594 15.1265 18.9188 14.7375 19.0125 14.4656L19.1813 13.9687H19.6594C20.2313 13.9687 20.4328 13.8937 20.5172 13.6406C20.5875 13.425 20.6016 10.65 20.5266 10.3922C20.4469 10.1015 20.2781 10.0312 19.6828 10.0312H19.186L19.0594 9.64216C18.9891 9.43122 18.8297 9.04216 18.7078 8.77966L18.4781 8.30622L18.7828 8.01091C19.2235 7.57498 19.3031 7.37341 19.1531 7.08747C19.1156 7.01716 18.5906 6.46873 17.9906 5.86872L16.8938 4.78123H16.6688C16.4485 4.78123 16.4297 4.79529 16.0594 5.15154L15.6797 5.51716L15.211 5.29216C14.9531 5.1656 14.5688 5.01091 14.3578 4.9406L13.9688 4.81404V4.32654C13.9688 3.81091 13.9125 3.60935 13.7391 3.5156C13.6172 3.44997 10.3641 3.45466 10.2516 3.52029ZM12.9844 4.89841C12.9844 5.37185 12.9891 5.39529 13.1156 5.52654C13.2094 5.62498 13.3453 5.68591 13.6406 5.7656C14.161 5.90154 14.7375 6.1406 15.2485 6.43122C15.8016 6.74529 15.8813 6.73123 16.336 6.28123L16.6641 5.9531L17.3531 6.64216L18.0422 7.33123L17.6953 7.69216C17.2547 8.14216 17.25 8.19841 17.5735 8.7656C17.8688 9.27654 18.1078 9.85779 18.2391 10.3734C18.3844 10.9594 18.4594 11.0156 19.1063 11.0156H19.5938V12V12.9844H19.125C18.8719 12.9844 18.6094 13.0078 18.5438 13.0359C18.436 13.0875 18.2813 13.3265 18.2813 13.4484C18.2813 13.6312 17.9391 14.5125 17.6672 15.0375C17.4703 15.4125 17.3438 15.7172 17.3438 15.8062C17.3438 15.9234 17.4094 16.0172 17.6953 16.3078L18.0422 16.664L17.3578 17.3531L16.6688 18.0422L16.3078 17.6953C16.0172 17.4094 15.9188 17.3437 15.8016 17.3437C15.7172 17.3437 15.4313 17.4656 15.0844 17.6437C14.5219 17.939 13.9453 18.164 13.4766 18.2765C13.0453 18.3797 12.9844 18.4828 12.9844 19.1203V19.5937H12H11.0156V19.1203C11.0156 18.4828 10.9547 18.3797 10.5235 18.2765C10.0547 18.164 9.47814 17.939 8.91564 17.6437C8.56876 17.4656 8.28283 17.3437 8.19845 17.3437C8.08126 17.3437 7.98283 17.4094 7.6922 17.6953L7.33126 18.0422L6.6422 17.3531L5.95783 16.664L6.3047 16.3078C6.59064 16.0172 6.65626 15.9234 6.65626 15.8062C6.65626 15.7172 6.5297 15.4125 6.33283 15.0375C6.06095 14.5125 5.71876 13.6312 5.71876 13.4484C5.71876 13.3265 5.56408 13.0875 5.45626 13.0359C5.39064 13.0078 5.12814 12.9844 4.87501 12.9844H4.40626V12.4547C4.40626 12.1687 4.42033 11.7234 4.43908 11.4703L4.4672 11.0156H4.92658C5.53595 11.0156 5.61564 10.9547 5.76095 10.3734C5.8922 9.85779 6.13126 9.27654 6.42658 8.7656C6.75001 8.19841 6.74533 8.14216 6.3047 7.69216L5.95783 7.33123L6.64689 6.64216L7.33595 5.9531L7.66408 6.28123C8.12345 6.7406 8.19376 6.74529 8.79376 6.40779C9.32814 6.10779 9.95626 5.85466 10.4438 5.73748C10.7063 5.67654 10.8094 5.62498 10.8985 5.52185C11.0063 5.39529 11.0156 5.34373 11.0156 4.89373V4.40623H12H12.9844V4.89841Z" fill="white"/>
<path d="M11.4141 8.13748C10.125 8.34841 9.00939 9.18748 8.46564 10.3687C8.19376 10.95 8.13751 11.2406 8.13751 12C8.13751 12.7594 8.19376 13.05 8.46095 13.6265C8.94845 14.6812 9.84845 15.4406 11.0156 15.7781C11.4375 15.9 12.5484 15.9 12.9844 15.7781C14.3484 15.4031 15.4031 14.3484 15.7781 12.9844C15.9 12.5578 15.9 11.4422 15.7781 11.0156C15.4031 9.66091 14.3438 8.59216 13.0078 8.22654C12.7266 8.15154 11.6953 8.09529 11.4141 8.13748ZM12.6375 9.16404C13.95 9.47341 14.9063 10.6687 14.9063 12C14.9063 13.5844 13.5797 14.9062 12 14.9062C10.4203 14.9062 9.09376 13.5797 9.09376 12C9.09376 10.1625 10.8656 8.74216 12.6375 9.16404Z" fill="white"/>
<path d="M7.45311 22.2797C7.12498 22.4438 7.14373 22.9735 7.48592 23.1329C7.79998 23.2829 8.13279 23.1094 8.18904 22.7672C8.24998 22.3735 7.82811 22.0922 7.45311 22.2797Z" fill="white"/>
</svg>
