<svg width="150" height="150" viewBox="0 0 150 150" fill="none" xmlns="http://www.w3.org/2000/svg">
<circle cx="75" cy="75" r="74" stroke="#95C343" stroke-width="2"/>
<circle cx="75" cy="75" r="65" fill="#DEECC5"/>
<path d="M95.3125 90.625H54.6875C54.2731 90.625 53.8757 90.4604 53.5826 90.1674C53.2896 89.8743 53.125 89.4769 53.125 89.0625V62.5C53.125 62.0856 53.2896 61.6882 53.5826 61.3951C53.8757 61.1021 54.2731 60.9375 54.6875 60.9375H64.7812L67.4531 56.9531C67.5947 56.7382 67.7871 56.5615 68.0134 56.4389C68.2396 56.3162 68.4926 56.2513 68.75 56.25H81.25C81.5074 56.2513 81.7604 56.3162 81.9866 56.4389C82.2129 56.5615 82.4053 56.7382 82.5469 56.9531L85.2188 60.9375H95.3125C95.7269 60.9375 96.1243 61.1021 96.4174 61.3951C96.7104 61.6882 96.875 62.0856 96.875 62.5V89.0625C96.875 89.4769 96.7104 89.8743 96.4174 90.1674C96.1243 90.4604 95.7269 90.625 95.3125 90.625ZM56.25 87.5H93.75V64.0625H84.375C84.1176 64.0612 83.8646 63.9963 83.6384 63.8736C83.4121 63.751 83.2197 63.5743 83.0781 63.3594L80.4062 59.375H69.5938L66.9219 63.3594C66.7803 63.5743 66.5879 63.751 66.3616 63.8736C66.1354 63.9963 65.8824 64.0612 65.625 64.0625H56.25V87.5Z" fill="#95C343"/>
<path d="M75 84.375C73.1458 84.375 71.3332 83.8252 69.7915 82.795C68.2498 81.7649 67.0482 80.3007 66.3386 78.5877C65.6291 76.8746 65.4434 74.9896 65.8051 73.171C66.1669 71.3525 67.0598 69.682 68.3709 68.3709C69.682 67.0598 71.3525 66.1669 73.171 65.8051C74.9896 65.4434 76.8746 65.6291 78.5877 66.3386C80.3007 67.0482 81.7649 68.2498 82.795 69.7915C83.8252 71.3332 84.375 73.1458 84.375 75C84.375 77.4864 83.3873 79.871 81.6291 81.6291C79.871 83.3873 77.4864 84.375 75 84.375ZM75 68.75C73.7639 68.75 72.5555 69.1166 71.5277 69.8033C70.4999 70.4901 69.6988 71.4662 69.2258 72.6082C68.7527 73.7503 68.6289 75.0069 68.8701 76.2193C69.1113 77.4317 69.7065 78.5453 70.5806 79.4194C71.4547 80.2935 72.5683 80.8888 73.7807 81.1299C74.9931 81.3711 76.2497 81.2473 77.3918 80.7742C78.5338 80.3012 79.5099 79.5001 80.1967 78.4723C80.8834 77.4445 81.25 76.2361 81.25 75C81.25 73.3424 80.5915 71.7527 79.4194 70.5806C78.2473 69.4085 76.6576 68.75 75 68.75Z" fill="#95C343"/>
</svg>
