<svg width="45" height="44" viewBox="0 0 45 44" fill="none" xmlns="http://www.w3.org/2000/svg">
<path d="M31.6667 16.4998V12.8332C31.6667 10.8081 30.025 9.1665 28 9.1665H9.66667C7.64162 9.1665 6 10.8081 6 12.8332V23.8332C6 25.8582 7.64162 27.4998 9.66667 27.4998H13.3333M17 34.8332H35.3333C37.3584 34.8332 39 33.1915 39 31.1665V20.1665C39 18.1415 37.3584 16.4998 35.3333 16.4998H17C14.975 16.4998 13.3333 18.1415 13.3333 20.1665V31.1665C13.3333 33.1915 14.975 34.8332 17 34.8332ZM29.8333 25.6665C29.8333 27.6915 28.1917 29.3332 26.1667 29.3332C24.1416 29.3332 22.5 27.6915 22.5 25.6665C22.5 23.6415 24.1416 21.9998 26.1667 21.9998C28.1917 21.9998 29.8333 23.6415 29.8333 25.6665Z" stroke="#95C343" stroke-width="2" stroke-linecap="round" stroke-linejoin="round"/>
</svg>
