<svg width="66" height="65" viewBox="0 0 66 65" fill="none" xmlns="http://www.w3.org/2000/svg">
<circle cx="33" cy="32.5" r="32" fill="#F4F9EC" stroke="#95C343"/>
<path d="M42.6667 27.4998V23.8332C42.6667 21.8081 41.025 20.1665 39 20.1665H20.6667C18.6416 20.1665 17 21.8081 17 23.8332V34.8332C17 36.8582 18.6416 38.4998 20.6667 38.4998H24.3333M28 45.8332H46.3333C48.3584 45.8332 50 44.1915 50 42.1665V31.1665C50 29.1415 48.3584 27.4998 46.3333 27.4998H28C25.975 27.4998 24.3333 29.1415 24.3333 31.1665V42.1665C24.3333 44.1915 25.975 45.8332 28 45.8332ZM40.8333 36.6665C40.8333 38.6915 39.1917 40.3332 37.1667 40.3332C35.1416 40.3332 33.5 38.6915 33.5 36.6665C33.5 34.6415 35.1416 32.9998 37.1667 32.9998C39.1917 32.9998 40.8333 34.6415 40.8333 36.6665Z" stroke="#95C343" stroke-width="2" stroke-linecap="round" stroke-linejoin="round"/>
</svg>
